{"title":"Elevator 2011 BRRip 720p x264 6Ch-AC3 - ViZNU [P2PDL]","uid":7680655,"size":745525032,"categoryP":"video","categoryS":"hd___movies","magnet":"?xt=urn:btih:f8b1b3dbfdf52b5a51a671d377402c0cecc3f27a&amp;dn=Elevator+2011+BRRip+720p+x264+6Ch-AC3+-+ViZNU+%5BP2PDL%5D&amp;tr=udp%3A%2F%2Ftracker.openbittorrent.com%3A80&amp;tr=udp%3A%2F%2Fopen.demonii.com%3A1337&amp;tr=udp%3A%2F%2Ftracker.coppersurfer.tk%3A6969&amp;tr=udp%3A%2F%2Fexodus.desync.com%3A6969","seeders":1,"leechers":2,"uploader":"ValidusVyto","files":-1,"time":1348812874,"description":"Release Title: Elevator (2011)\n\n\nGeneral\nFormat                         : Matroska\nFormat version                 : Version 2\nFile size                      : 691 MiB\nDuration                       : 1h 24mn\nOverall bit rate               : 1 139 Kbps\nMovie name                     : Elevator 2011 BRRip 720p x264 6Ch-AC3 - ViZNU [P2PDL]\nSource                         : 720p.BluRay.x264-SONiDO(Thanks)\n\nVideo\nID                             : 1\nFormat                         : AVC\nFormat/Info                    : Advanced Video Codec\nFormat profile                 : High &lt;a class=&quot;__cf_email__&quot; href=&quot;/cdn-cgi/l/email-protection&quot; data-cfemail=&quot;122322525e263c23&quot;&gt;[email&amp;#160;protected]&lt;/a&gt;&lt;script cf-hash='f9e31' type=&quot;text/javascript&quot;&gt;\n/* &lt;![CDATA[ */!function(){try{var t=&quot;currentScript&quot;in document?document.currentScript:function(){for(var t=document.getElementsByTagName(&quot;script&quot;),e=t.length;e--;)if(t[e].getAttribute(&quot;cf-hash&quot;))return t[e]}();if(t&amp;&amp;t.previousSibling){var e,r,n,i,c=t.previousSibling,a=c.getAttribute(&quot;data-cfemail&quot;);if(a){for(e=&quot;&quot;,r=parseInt(a.substr(0,2),16),n=2;a.length-n;n+=2)i=parseInt(a.substr(n,2),16)^r,e+=String.fromCharCode(i);e=document.createTextNode(e),c.parentNode.replaceChild(e,c)}}}catch(u){}}();/* ]]&gt; */&lt;/script&gt;\nFormat settings, CABAC         : Yes\nFormat settings, ReFrames      : 5 frames\nMuxing mode                    : Header stripping\nCodec ID                       : V_MPEG4/ISO/AVC\nDuration                       : 1h 24mn\nBit rate                       : 754 Kbps\nWidth                          : 1 280 pixels\nHeight                         : 544 pixels\nDisplay aspect ratio           : 2.35:1\nFrame rate mode                : Constant\nFrame rate                     : 25.000 fps\nColor space                    : YUV\nChroma subsampling             : 4:2:0\nStream size                    : 444 MiB (64%)\nWriting library                : x264 core 125 r2208 d9d2288\nDefault                        : Yes\nForced                         : No\n\nAudio\nID                             : 2\nFormat                         : AC-3\nFormat/Info                    : Audio Coding 3\nMode extension                 : CM (complete main)\nFormat settings, Endianness    : Big\nMuxing mode                    : Header stripping\nCodec ID                       : A_AC3\nDuration                       : 1h 24mn\nBit rate mode                  : Constant\nBit rate                       : 384 Kbps\nChannel(s)                     : 6 channels\nChannel positions              : Front: L C R, Side: L R, LFE\nSampling rate                  : 48.0 KHz\nBit depth                      : 16 bits\nStream size                    : 233 MiB (34%)\nLanguage                       : English\nDefault                        : Yes\nForced                         : No\n\n\n\n\nScreens:\n\n &lt;a href=&quot;\nhttp://www.shotpix.com/images/07687287051585988352.png&quot; rel=&quot;nofollow&quot; target=&quot;_NEW&quot;&gt;\nhttp://www.shotpix.com/images/07687287051585988352.png&lt;/a&gt; &lt;a href=&quot;\nhttp://www.shotpix.com/images/46238518388465678847.png&quot; rel=&quot;nofollow&quot; target=&quot;_NEW&quot;&gt;\nhttp://www.shotpix.com/images/46238518388465678847.png&lt;/a&gt; &lt;a href=&quot;\nhttp://www.shotpix.com/images/11422610093163202219.png&quot; rel=&quot;nofollow&quot; target=&quot;_NEW&quot;&gt;\nhttp://www.shotpix.com/images/11422610093163202219.png&lt;/a&gt; &lt;a href=&quot;\nhttp://www.shotpix.com/images/84503299643005431563.png&quot; rel=&quot;nofollow&quot; target=&quot;_NEW&quot;&gt;\nhttp://www.shotpix.com/images/84503299643005431563.png&lt;/a&gt; &lt;a href=&quot;\nhttp://www.shotpix.com/images/27117231120210192191.png&quot; rel=&quot;nofollow&quot; target=&quot;_NEW&quot;&gt;\nhttp://www.shotpix.com/images/27117231120210192191.png&lt;/a&gt; &lt;a href=&quot;\nhttp://www.shotpix.com/images/42472907549034258193.png&quot; rel=&quot;nofollow&quot; target=&quot;_NEW&quot;&gt;\nhttp://www.shotpix.com/images/42472907549034258193.png&lt;/a&gt;\n\nEnjoy\n","torrent":{"xt":"urn:btih:f8b1b3dbfdf52b5a51a671d377402c0cecc3f27a","amp;dn":"Elevator+2011+BRRip+720p+x264+6Ch-AC3+-+ViZNU+%5BP2PDL%5D","amp;tr":["udp%3A%2F%2Ftracker.openbittorrent.com%3A80","udp%3A%2F%2Fopen.demonii.com%3A1337","udp%3A%2F%2Ftracker.coppersurfer.tk%3A6969","udp%3A%2F%2Fexodus.desync.com%3A6969"],"infoHash":"f8b1b3dbfdf52b5a51a671d377402c0cecc3f27a","infoHashBuffer":{"type":"Buffer","data":[248,177,179,219,253,245,43,90,81,166,113,211,119,64,44,12,236,195,242,122]},"announce":[],"urlList":[]}}